<svg width="208" height="34" viewBox="0 0 208 34" fill="none" xmlns="http://www.w3.org/2000/svg">
<path d="M162.246 18.0001C162.246 12.1187 167.014 7.35083 172.895 7.35083H197.352C203.233 7.35083 208.001 12.1187 208.001 18.0001C208.001 23.8815 203.233 28.6494 197.352 28.6494H172.895C167.014 28.6494 162.246 23.8815 162.246 18.0001Z" fill="#1546A3"/>
<path d="M182.027 16.4738H179.954C179.916 16.2055 179.839 15.9672 179.722 15.7589C179.605 15.5475 179.455 15.3676 179.272 15.2193C179.089 15.0709 178.878 14.9573 178.638 14.8784C178.401 14.7995 178.144 14.76 177.866 14.76C177.364 14.76 176.927 14.8847 176.555 15.134C176.182 15.3802 175.894 15.74 175.688 16.2134C175.483 16.6837 175.381 17.2549 175.381 17.9272C175.381 18.6183 175.483 19.1991 175.688 19.6693C175.897 20.1396 176.187 20.4946 176.559 20.7345C176.932 20.9744 177.363 21.0943 177.852 21.0943C178.126 21.0943 178.381 21.058 178.614 20.9854C178.851 20.9128 179.061 20.8071 179.244 20.6682C179.427 20.5262 179.578 20.3542 179.698 20.1522C179.821 19.9502 179.907 19.7198 179.954 19.461L182.027 19.4705C181.974 19.9155 181.84 20.3447 181.625 20.7582C181.414 21.1685 181.128 21.5361 180.768 21.8612C180.411 22.1831 179.985 22.4388 179.49 22.6281C178.998 22.8144 178.441 22.9075 177.819 22.9075C176.954 22.9075 176.181 22.7118 175.499 22.3204C174.82 21.9291 174.284 21.3626 173.889 20.6209C173.498 19.8792 173.302 18.9813 173.302 17.9272C173.302 16.8699 173.501 15.9704 173.899 15.2287C174.297 14.487 174.836 13.9221 175.518 13.5339C176.2 13.1426 176.967 12.9469 177.819 12.9469C178.381 12.9469 178.901 13.0258 179.381 13.1836C179.864 13.3414 180.292 13.5718 180.664 13.8748C181.036 14.1746 181.339 14.5423 181.573 14.9778C181.81 15.4134 181.961 15.912 182.027 16.4738Z" fill="#00FFCE"/>
<path d="M182.497 22.7749V13.0794H186.379C187.093 13.0794 187.688 13.1852 188.164 13.3966C188.641 13.6081 188.999 13.9016 189.239 14.2772C189.479 14.6496 189.599 15.0788 189.599 15.5648C189.599 15.9436 189.523 16.2765 189.371 16.5637C189.22 16.8478 189.012 17.0813 188.747 17.2644C188.485 17.4443 188.185 17.5721 187.847 17.6479V17.7425C188.216 17.7583 188.562 17.8625 188.884 18.055C189.209 18.2475 189.472 18.5174 189.674 18.8645C189.876 19.2085 189.977 19.6188 189.977 20.0954C189.977 20.6098 189.85 21.069 189.594 21.473C189.341 21.8738 188.967 22.191 188.472 22.4246C187.976 22.6581 187.366 22.7749 186.64 22.7749H182.497ZM184.547 21.099H186.219C186.79 21.099 187.206 20.9901 187.468 20.7724C187.73 20.5514 187.861 20.2579 187.861 19.8918C187.861 19.6236 187.797 19.3869 187.667 19.1817C187.538 18.9766 187.353 18.8156 187.113 18.6988C186.877 18.5821 186.594 18.5237 186.266 18.5237H184.547V21.099ZM184.547 17.1366H186.067C186.348 17.1366 186.597 17.0877 186.815 16.9898C187.036 16.8888 187.21 16.7468 187.336 16.5637C187.465 16.3807 187.53 16.1613 187.53 15.9057C187.53 15.5554 187.405 15.2729 187.156 15.0583C186.91 14.8437 186.559 14.7364 186.105 14.7364H184.547V17.1366Z" fill="#00FFCE"/>
<path d="M189.942 14.7695V13.0794H197.905V14.7695H194.937V22.7749H192.91V14.7695H189.942Z" fill="#00FFCE"/>
<path d="M5.81354 0.708496H26.7529C29.8735 0.708496 32.4004 3.26278 32.4004 6.41707V27.5828C32.4004 30.7371 29.8735 33.2914 26.7529 33.2914H5.81354C2.69298 33.2914 0.166016 30.7371 0.166016 27.5828V6.41707C0.166016 3.26278 2.69298 0.708496 5.81354 0.708496Z" fill="#1546A3"/>
<path d="M9.1607 23.5657H12.7335V27.1771C12.7335 29.1714 11.1337 30.7885 9.1607 30.7885C7.18774 30.7885 5.58789 29.1714 5.58789 27.1771C5.58789 25.1828 7.18774 23.5657 9.1607 23.5657Z" fill="#00FFCE"/>
<path d="M23.1525 12.3371C23.1525 12.3371 21.1456 12.3028 9.17786 12.3314C6.15341 12.3371 5.59375 14.2743 5.59375 14.2743L5.5994 8.62285C5.5994 6.63999 7.31797 5.02856 9.44356 5.02856H26.9175V8.82285C26.9119 10.76 25.2272 12.3371 23.1525 12.3371Z" fill="#00FFCE"/>
<path d="M16.4135 21.64C16.4135 21.64 19.6302 21.6057 8.8213 21.6343C6.08516 21.64 5.58203 23.5714 5.58203 23.5714L5.58768 17.9257C5.58768 15.9429 7.14231 14.3372 9.05873 14.3372H19.8167V18.1257C19.8111 20.0686 18.2904 21.64 16.4135 21.64Z" fill="#00FFCE"/>
<path d="M43.583 18.3199H40.0215V13.9599H43.583V10.8342C43.583 6.98278 44.5553 3.7085 50.4177 3.7085C51.4974 3.7085 52.5772 3.78278 53.5835 4.03421L53.3291 8.65135C52.7185 8.43421 52.2154 8.28564 51.5653 8.28564C49.8411 8.28564 48.9761 8.8285 48.9761 11.1599V13.9599H52.9673V18.3199H48.9761V31.6228H43.583V18.3199ZM55.0929 4.14278H60.486V31.6228H55.0929V4.14278Z" fill="#1A1A1B"/>
<path d="M78.7558 28.5713C77.0316 30.7885 74.188 32.0628 71.384 32.0628C65.9909 32.0628 61.6719 28.4285 61.6719 22.7942C61.6719 17.1599 65.9852 13.5256 71.384 13.5256C76.421 13.5256 79.5811 17.1599 79.5811 22.7942V24.5028H67.065C67.4946 26.5771 69.0436 27.9199 71.1296 27.9199C72.8934 27.9199 74.0806 27.0113 74.9794 25.7771L78.7558 28.5713ZM74.188 20.7942C74.2219 18.9771 72.8199 17.4513 70.8809 17.4513C68.5066 17.4513 67.212 19.0856 67.0707 20.7942H74.188Z" fill="#1A1A1B"/>
<path d="M86.1271 22.1712L80.2987 13.9541H86.6642L89.7565 18.7541L92.7414 13.9541H98.745L93.0636 22.1712L99.7909 31.6227H93.4254L89.6151 25.7312L85.5166 31.6227H79.2246L86.1271 22.1712Z" fill="#1A1A1B"/>
<path d="M102.741 5.23413C104.466 5.23413 105.868 6.65127 105.868 8.39413C105.868 10.137 104.466 11.5541 102.741 11.5541C101.017 11.5541 99.6153 10.137 99.6153 8.39413C99.6096 6.65127 101.012 5.23413 102.741 5.23413ZM100.045 13.9598H105.438V31.6284H100.045V13.9598Z" fill="#1A1A1B"/>
<path d="M117.773 19.1543C116.982 18.1714 115.941 17.6629 114.647 17.6629C113.748 17.6629 112.668 18.0629 112.668 19.1143C112.668 21.7314 121.764 19.5143 121.764 26.24C121.764 30.7486 117.451 32.0572 113.708 32.0572C111.261 32.0572 108.564 31.44 106.84 29.6572L110.113 25.9829C111.119 27.2286 112.306 27.9143 113.923 27.9143C115.144 27.9143 116.371 27.5886 116.371 26.64C116.371 23.8057 107.275 26.2057 107.275 19.48C107.275 15.3372 110.944 13.52 114.613 13.52C116.914 13.52 119.469 14.1029 121.086 15.8457L117.773 19.1543Z" fill="#1A1A1B"/>
<path d="M134.066 29.4057H133.993C132.806 31.2972 130.646 32.0572 128.453 32.0572C125.179 32.0572 122.229 30.1657 122.229 26.6057C122.229 20.4972 129.566 20.3886 134.061 20.3886C134.061 18.4629 132.478 17.2286 130.607 17.2286C128.843 17.2286 127.367 18.0286 126.22 19.3372L123.342 16.3543C125.321 14.4629 128.198 13.52 131.036 13.52C137.328 13.52 139.018 16.7543 139.018 22.6457V31.6229H134.055V29.4057H134.066ZM132.732 23.88C131.076 23.88 127.412 24.0229 127.412 26.4229C127.412 27.7315 128.781 28.3486 129.968 28.3486C132.088 28.3486 134.066 27.2229 134.066 25.04V23.8743H132.732V23.88Z" fill="#1A1A1B"/>
<path d="M142.841 18.3199H139.279V13.9599H142.841V10.8342C142.841 6.98278 143.813 3.7085 149.675 3.7085C150.755 3.7085 151.835 3.78278 152.841 4.03421L152.587 8.65135C151.976 8.43421 151.473 8.28564 150.823 8.28564C149.099 8.28564 148.234 8.8285 148.234 11.1599V13.9599H152.225V18.3199H148.234V31.6228H142.841V18.3199Z" fill="#1A1A1B"/>
</svg>
